<svg width="50" height="51" viewBox="0 0 50 51" fill="none" xmlns="http://www.w3.org/2000/svg">
<path d="M33.0833 13V13.25H33.3333H43.75C44.2362 13.25 44.7025 13.4432 45.0463 13.787C45.3901 14.1308 45.5833 14.5971 45.5833 15.0833V42.1667C45.5833 42.6529 45.3901 43.1192 45.0463 43.463C44.7025 43.8068 44.2362 44 43.75 44H6.24996C5.76373 44 5.29741 43.8068 4.9536 43.463C4.60978 43.1192 4.41663 42.6529 4.41663 42.1667V15.0833C4.41663 14.5971 4.60978 14.1308 4.9536 13.787C5.29741 13.4432 5.76373 13.25 6.24996 13.25H16.6666H16.9166V13V8.83333C16.9166 8.3471 17.1098 7.88079 17.4536 7.53697C17.7974 7.19315 18.2637 7 18.75 7H31.25C31.7362 7 32.2025 7.19315 32.5463 7.53697C32.8901 7.88079 33.0833 8.3471 33.0833 8.83333V13ZM33.5833 17.1667V16.9167H33.3333H16.6666H16.4166V17.1667V40.0833V40.3333H16.6666H33.3333H33.5833V40.0833V17.1667ZM8.33329 16.9167H8.08329V17.1667V40.0833V40.3333H8.33329H12.5H12.75V40.0833V17.1667V16.9167H12.5H8.33329ZM29.4166 10.9167V10.6667H29.1666H20.8333H20.5833V10.9167V13V13.25H20.8333H29.1666H29.4166V13V10.9167ZM37.5 16.9167H37.25V17.1667V40.0833V40.3333H37.5H41.6666H41.9166V40.0833V17.1667V16.9167H41.6666H37.5Z" fill="#00184A" stroke="white" stroke-width="0.5"/>
</svg>
