<svg width="24" height="24" viewBox="0 0 24 24" fill="none" xmlns="http://www.w3.org/2000/svg">
<path d="M17.7774 21.9998C18.8029 22.0084 19.3902 21.7825 19.9687 21.1915C20.4771 20.6701 20.9854 20.1573 21.4938 19.6359C22.1687 18.9493 22.1687 18.4104 21.4938 17.7239C20.6261 16.8461 19.7408 15.9857 18.8643 15.1166C18.2156 14.4735 17.716 14.4735 17.0674 15.1079C16.524 15.6294 15.998 16.1769 15.4546 16.6984C15.0163 17.1242 14.657 17.2024 14.1223 16.8809C13.1932 16.3073 12.2378 15.7684 11.4051 15.0819C9.61699 13.6218 8.06556 11.9445 7.07509 9.82391C6.7946 9.23294 6.86473 8.92007 7.33805 8.46815C7.88149 7.93801 8.43369 7.42525 8.95084 6.87772C9.52934 6.26937 9.52934 5.77399 8.94207 5.17432C8.03049 4.2531 7.11015 3.34056 6.18981 2.43671C5.59377 1.85443 5.04157 1.85443 4.43677 2.43671C3.92839 2.93209 3.43754 3.45354 2.92039 3.94023C2.20165 4.60073 1.94746 5.41767 2.00882 6.36497C2.0877 7.57299 2.4646 8.69411 2.96422 9.77177C5.28699 14.7255 8.91578 18.4191 13.8506 20.8352C15.1391 21.4696 16.4801 21.9389 17.7774 21.9998Z" fill="white"/>
</svg>
