<?xml version="1.0" standalone="no"?>
<!DOCTYPE svg PUBLIC "-//W3C//DTD SVG 20010904//EN"
 "http://www.w3.org/TR/2001/REC-SVG-20010904/DTD/svg10.dtd">
<svg version="1.0" xmlns="http://www.w3.org/2000/svg"
 width="1446.000000pt" height="1753.000000pt" viewBox="0 0 1446.000000 1753.000000"
 preserveAspectRatio="xMidYMid meet">

<g transform="translate(0.000000,1753.000000) scale(0.100000,-0.100000)"
fill="#000000" stroke="none">
<path d="M1 17183 c0 -192 2 -343 4 -338 2 6 11 44 20 85 66 293 307 523 615
585 59 12 32 13 -287 14 l-353 1 1 -347z"/>
<path d="M885 17521 c17 -5 55 -14 85 -21 102 -23 225 -89 311 -165 19 -17
117 -122 219 -235 101 -113 205 -227 231 -255 25 -27 135 -149 244 -270 109
-121 221 -245 249 -275 28 -30 73 -80 100 -110 27 -30 72 -80 100 -110 28 -30
89 -98 136 -150 47 -52 103 -115 126 -140 22 -25 90 -99 149 -165 60 -66 145
-160 190 -210 45 -49 176 -193 290 -320 114 -126 224 -248 244 -270 20 -22
162 -179 316 -350 154 -170 309 -341 345 -380 36 -39 101 -111 146 -160 44
-50 175 -193 289 -320 241 -266 321 -354 470 -520 118 -132 173 -191 249 -275
28 -30 91 -100 141 -155 49 -55 115 -127 145 -160 31 -33 94 -103 141 -155
110 -123 479 -531 538 -595 25 -27 85 -93 132 -145 301 -334 649 -718 687
-758 l24 -25 43 44 c23 24 341 366 705 759 364 393 686 740 714 770 29 30 375
404 770 830 396 426 747 804 780 840 34 36 95 101 136 145 105 114 184 199
260 280 36 39 115 124 175 190 60 66 146 158 191 205 44 47 258 276 474 510
216 234 421 454 454 490 33 36 89 97 126 135 36 39 121 131 190 205 69 74 128
137 131 140 3 3 66 70 139 150 215 233 603 651 656 705 153 158 345 240 559
239 127 0 211 -18 325 -71 74 -34 196 -119 235 -165 111 -130 169 -244 200
-398 11 -58 13 -25 14 318 l1 382 -6802 -1 c-3742 0 -6789 -4 -6773 -8z"/>
<path d="M1720 9514 c0 -4618 6 -4214 -66 -4373 -101 -220 -284 -372 -518
-431 -102 -26 -394 -28 -506 -5 -241 51 -446 214 -550 438 -21 45 -43 107 -50
137 -7 30 -16 69 -21 85 -4 17 -8 -1184 -8 -2667 l-1 -2698 7230 0 7230 0 -1
2693 -1 2692 -22 -90 c-72 -296 -286 -512 -579 -585 -81 -20 -106 -21 -325
-18 -249 5 -294 11 -399 59 -157 72 -305 214 -378 362 -25 51 -53 117 -63 147
-16 51 -17 330 -19 4220 -2 2291 -5 4172 -8 4180 -4 9 -912 -892 -2733 -2713
-1500 -1500 -2732 -2727 -2737 -2727 -6 0 -1236 1226 -2735 2725 -1499 1499
-2728 2725 -2732 2725 -5 0 -8 -1870 -8 -4156z m1910 -3574 c166 -52 219 -76
320 -143 25 -16 773 -757 1662 -1646 l1618 -1616 1627 1625 c1485 1483 1635
1630 1708 1673 155 91 267 120 460 121 180 1 264 -17 408 -90 92 -46 140 -80
213 -150 192 -186 284 -419 271 -690 -8 -171 -52 -311 -141 -449 -27 -41 -737
-759 -2293 -2315 l-2253 -2255 -2231 2230 c-1227 1227 -2250 2255 -2273 2285
-135 173 -194 365 -183 592 6 135 32 241 89 353 125 249 347 423 608 474 30 6
64 13 75 15 35 9 279 -2 315 -14z"/>
</g>
</svg>
