<svg width="51" height="51" viewBox="0 0 51 51" fill="none" xmlns="http://www.w3.org/2000/svg">
<path d="M25.9898 3.37819L25.9899 3.37824L42.5799 9.03191C42.5801 9.03199 42.5804 9.03208 42.5806 9.03217C42.7253 9.08294 42.8697 9.19704 42.9776 9.34975C43.0858 9.50279 43.1434 9.67466 43.14 9.82537L43.1399 9.82537V9.83105V33.3857C43.1399 33.5548 43.0841 33.7672 42.9839 33.9725C42.8838 34.1777 42.7514 34.351 42.6209 34.4532C42.6208 34.4533 42.6207 34.4534 42.6206 34.4535L25.7899 47.5684L25.7881 47.5698C25.6733 47.6611 25.5061 47.7158 25.3284 47.7158C25.1531 47.7158 24.9889 47.6623 24.8666 47.5682C24.8663 47.5681 24.8661 47.5679 24.8658 47.5677L8.03791 34.4549C8.03759 34.4546 8.03727 34.4544 8.03695 34.4541C7.90545 34.349 7.77284 34.1739 7.6728 33.9688C7.57241 33.7631 7.51685 33.552 7.51685 33.3857V9.83105C7.51685 9.67787 7.57751 9.50285 7.68727 9.34848C7.79709 9.19403 7.94131 9.08094 8.08406 9.03278L8.08479 9.03253L24.6766 3.37824L24.6767 3.37819C24.8423 3.32164 25.0814 3.28906 25.3333 3.28906C25.5851 3.28906 25.8242 3.32164 25.9898 3.37819ZM40.0377 32.6454L40.134 32.5704V32.4482V11.5693V11.3904L39.9647 11.3327L25.4139 6.37177L25.3333 6.34427L25.2526 6.37177L10.7018 11.3327L10.5325 11.3904V11.5693V32.4482V32.5704L10.6288 32.6454L25.1796 43.9833L25.3333 44.1031L25.4869 43.9833L40.0377 32.6454ZM23.0265 27.1313L23.2288 27.4098L23.431 27.1313L30.7987 16.9855C30.7988 16.9854 30.7989 16.9853 30.799 16.9851C30.8986 16.8493 31.0628 16.7656 31.2317 16.7656H33.927C34.04 16.7656 34.1083 16.8958 34.0415 16.9896C34.0414 16.9898 34.0413 16.9899 34.0412 16.9901L23.6617 31.2802C23.6616 31.2804 23.6615 31.2805 23.6614 31.2806C23.6116 31.3486 23.5466 31.4039 23.4715 31.442C23.3963 31.4802 23.3131 31.5001 23.2288 31.5001C23.1444 31.5001 23.0612 31.4802 22.986 31.442C22.9109 31.4038 22.8458 31.3485 22.796 31.2805C22.796 31.2804 22.7959 31.2803 22.7959 31.2802L16.6253 22.786C16.6252 22.7858 16.625 22.7856 16.6249 22.7854C16.5583 22.6916 16.6265 22.5615 16.7395 22.5615H19.4348C19.6077 22.5615 19.7674 22.6444 19.8675 22.7809C19.8676 22.7811 19.8677 22.7812 19.8678 22.7814L23.0265 27.1313Z" fill="#00184A" stroke="white" stroke-width="0.5"/>
</svg>
