<svg width="24" height="24" viewBox="0 0 24 24" fill="none" xmlns="http://www.w3.org/2000/svg">
<path d="M14.7265 2.44785C12.0531 1.40821 9.03032 2.2207 7.33545 4.44849C5.859 6.38798 5.64932 8.49346 6.49676 10.7649C7.99069 14.7313 10.1486 18.3569 12.3152 22C12.3939 21.9476 12.4201 21.9388 12.4375 21.9214C14.4731 18.5753 16.4563 15.2031 17.9153 11.56C18.2735 10.6688 18.5967 9.71657 18.7016 8.77303C18.9986 6.09968 17.2688 3.43507 14.7265 2.44785ZM12.3676 10.3456C10.9436 10.3456 9.8166 9.2448 9.83408 7.87318C9.84281 6.52777 10.996 5.43571 12.3851 5.44445C13.7829 5.45318 14.9012 6.55397 14.9012 7.90812C14.8925 9.26227 13.7742 10.3456 12.3676 10.3456Z" fill="white"/>
</svg>
