<svg width="51" height="51" viewBox="0 0 51 51" fill="none" xmlns="http://www.w3.org/2000/svg">
<path d="M5.52779 19.3333L25.6667 7.76388L45.8056 19.3333C46.123 19.4994 46.4923 19.5363 46.8363 19.4365C47.1804 19.3367 47.4725 19.1079 47.6518 18.7977C47.8311 18.4876 47.8836 18.1202 47.7984 17.7722C47.7131 17.4243 47.4968 17.1227 47.1945 16.9305L25.6667 4.55554L4.1389 16.9305C3.97292 17.0174 3.82622 17.1369 3.70763 17.2819C3.58903 17.4269 3.50099 17.5943 3.4488 17.7742C3.39661 17.9541 3.38135 18.1427 3.40393 18.3287C3.42652 18.5146 3.48649 18.6941 3.58023 18.8563C3.67397 19.0185 3.79955 19.16 3.94941 19.2724C4.09927 19.3848 4.27032 19.4657 4.45226 19.5102C4.63419 19.5548 4.82327 19.5621 5.0081 19.5317C5.19294 19.5013 5.36971 19.4338 5.52779 19.3333Z" fill="#00184A"/>
<path d="M6.22241 36.6111C6.22241 36.9795 6.36874 37.3327 6.62921 37.5932C6.88968 37.8537 7.24294 38 7.6113 38H43.7224C44.0908 38 44.444 37.8537 44.7045 37.5932C44.965 37.3327 45.1113 36.9795 45.1113 36.6111C45.1113 36.2428 44.965 35.8895 44.7045 35.629C44.444 35.3686 44.0908 35.2222 43.7224 35.2222H39.5557V24.9861H36.778V35.2222H27.0557V24.9861H24.278V35.2222H14.5557V24.9861H11.778V35.2222H7.6113C7.24294 35.2222 6.88968 35.3686 6.62921 35.629C6.36874 35.8895 6.22241 36.2428 6.22241 36.6111Z" fill="#00184A"/>
<path d="M7.63892 19.9445H43.75V22.7222H7.63892V19.9445Z" fill="#00184A"/>
<path d="M46.5001 40.7778H4.83347C4.46511 40.7778 4.11184 40.9241 3.85138 41.1846C3.59091 41.445 3.44458 41.7983 3.44458 42.1667C3.44458 42.535 3.59091 42.8883 3.85138 43.1488C4.11184 43.4092 4.46511 43.5555 4.83347 43.5555H46.5001C46.8685 43.5555 47.2218 43.4092 47.4822 43.1488C47.7427 42.8883 47.889 42.535 47.889 42.1667C47.889 41.7983 47.7427 41.445 47.4822 41.1846C47.2218 40.9241 46.8685 40.7778 46.5001 40.7778Z" fill="#00184A"/>
<path d="M31.4306 16.5833H35.8889L26.5694 11.2222C26.4005 11.1247 26.2089 11.0734 26.0139 11.0734C25.8188 11.0734 25.6272 11.1247 25.4583 11.2222L16.125 16.5833H20.5833L26 13.4722L31.4306 16.5833Z" fill="#00184A"/>
</svg>
