<svg width="36" height="36" viewBox="0 0 36 36" fill="none" xmlns="http://www.w3.org/2000/svg">
<path d="M0.150469 17.838C0.149484 20.9819 0.974531 24.0511 2.54306 26.7564L0 36L9.50217 33.5197C12.1203 34.9408 15.0681 35.69 18.0676 35.6912H18.0754C27.954 35.6912 35.9958 27.6878 36 17.8522C36.0017 13.0856 34.1387 8.60328 30.7547 5.23144C27.3703 1.86001 22.8703 0.00195997 18.0754 0C8.19506 0 0.154406 8.00227 0.150469 17.838ZM5.80922 26.2905L5.45442 25.7298C3.96295 23.3688 3.17573 20.6406 3.17686 17.8391C3.18009 9.66391 9.86316 3.01275 18.081 3.01275C22.0607 3.01443 25.8008 4.55889 28.6138 7.36108C31.4267 10.1636 32.9746 13.8889 32.9736 17.8511C32.97 26.0263 26.2867 32.6783 18.0754 32.6783H18.0695C15.3958 32.6769 12.7735 31.962 10.4867 30.6112L9.94247 30.2899L4.30369 31.7617L5.80922 26.2905Z" fill="url(#paint0_linear_402_50)"/>
<path d="M13.5954 10.3805C13.2598 9.63814 12.9067 9.62316 12.5876 9.61014C12.3264 9.59894 12.0277 9.59978 11.7293 9.59978C11.4306 9.59978 10.9453 9.71164 10.5351 10.1575C10.1244 10.6038 8.96738 11.6824 8.96738 13.876C8.96738 16.0698 10.5723 18.1898 10.7961 18.4875C11.0201 18.7848 13.8945 23.4304 18.4468 25.2176C22.2301 26.7029 23.0001 26.4075 23.8212 26.333C24.6424 26.2588 26.4711 25.2547 26.8442 24.2136C27.2176 23.1726 27.2176 22.2802 27.1056 22.0937C26.9937 21.908 26.695 21.7964 26.2471 21.5735C25.7991 21.3505 23.5972 20.2718 23.1867 20.123C22.7761 19.9743 22.4775 19.9001 22.1788 20.3466C21.8801 20.7923 21.0225 21.7964 20.761 22.0937C20.4999 22.3918 20.2385 22.4289 19.7907 22.2059C19.3426 21.9822 17.9002 21.5119 16.1889 19.9931C14.8575 18.8112 13.9586 17.3517 13.6973 16.9053C13.436 16.4595 13.6693 16.2179 13.8939 15.9957C14.0951 15.7959 14.3419 15.4751 14.5661 15.2148C14.7894 14.9544 14.8639 14.7686 15.0133 14.4713C15.1628 14.1736 15.0879 13.9133 14.9761 13.6902C14.8639 13.4672 13.9936 11.2621 13.5954 10.3805Z" fill="white"/>
<defs>
<linearGradient id="paint0_linear_402_50" x1="18" y1="36" x2="18" y2="0" gradientUnits="userSpaceOnUse">
<stop stop-color="#F9F9F9"/>
<stop offset="1" stop-color="white"/>
</linearGradient>
</defs>
</svg>
